<?xml version="1.0" encoding="UTF-8" standalone="no"?>
<!DOCTYPE svg PUBLIC "-//W3C//DTD SVG 1.1//EN"
 "http://www.w3.org/Graphics/SVG/1.1/DTD/svg11.dtd">
<!-- Generated by graphviz version 11.0.0 (20240428.1522)
 -->
<!-- Title: dependency&#45;cruiser output Pages: 1 -->
<svg width="557pt" height="134pt"
 viewBox="0.00 0.00 557.25 134.00" xmlns="http://www.w3.org/2000/svg" xmlns:xlink="http://www.w3.org/1999/xlink">
<g id="graph0" class="graph" transform="scale(1 1) rotate(0) translate(4 130)">
<title>dependency&#45;cruiser output</title>
<polygon fill="white" stroke="none" points="-4,4 -4,-130 553.25,-130 553.25,4 -4,4"/>
<g id="clust1" class="cluster">
<title>cluster_src</title>
<path fill="#ffffff" stroke="black" stroke-width="2" d="M20,-8C20,-8 529.25,-8 529.25,-8 535.25,-8 541.25,-14 541.25,-20 541.25,-20 541.25,-106 541.25,-106 541.25,-112 535.25,-118 529.25,-118 529.25,-118 20,-118 20,-118 14,-118 8,-112 8,-106 8,-106 8,-20 8,-20 8,-14 14,-8 20,-8"/>
<text text-anchor="middle" x="274.62" y="-105.45" font-family="Helvetica,sans-Serif" font-weight="bold" font-size="9.00">src</text>
</g>
<!-- src/index.js -->
<g id="node1" class="node">
<title>src/index.js</title>
<g id="a_node1"><a xlink:href="src/index.js" xlink:title="index.js">
<path fill="#ffffcc" stroke="black" d="M64.08,-33.88C64.08,-33.88 21.92,-33.88 21.92,-33.88 18.96,-33.88 16,-30.92 16,-27.96 16,-27.96 16,-22.04 16,-22.04 16,-19.08 18.96,-16.12 21.92,-16.12 21.92,-16.12 64.08,-16.12 64.08,-16.12 67.04,-16.12 70,-19.08 70,-22.04 70,-22.04 70,-27.96 70,-27.96 70,-30.92 67.04,-33.88 64.08,-33.88"/>
<text text-anchor="start" x="27.25" y="-21.32" font-family="Helvetica,sans-Serif" font-size="9.00">index.js</text>
</a>
</g>
</g>
<!-- src/mod3aodmSetup.js -->
<g id="node2" class="node">
<title>src/mod3aodmSetup.js</title>
<g id="a_node2"><a xlink:href="src/mod3aodmSetup.js" xlink:title="mod3aodmSetup.js">
<path fill="#ffffcc" stroke="black" d="M172.58,-33.88C172.58,-33.88 88.92,-33.88 88.92,-33.88 85.96,-33.88 83,-30.92 83,-27.96 83,-27.96 83,-22.04 83,-22.04 83,-19.08 85.96,-16.12 88.92,-16.12 88.92,-16.12 172.58,-16.12 172.58,-16.12 175.54,-16.12 178.5,-19.08 178.5,-22.04 178.5,-22.04 178.5,-27.96 178.5,-27.96 178.5,-30.92 175.54,-33.88 172.58,-33.88"/>
<text text-anchor="start" x="91" y="-21.32" font-family="Helvetica,sans-Serif" font-size="9.00">mod3aodmSetup.js</text>
</a>
</g>
</g>
<!-- src/index.js&#45;&gt;src/mod3aodmSetup.js -->
<g id="edge1" class="edge">
<title>src/index.js&#45;&gt;src/mod3aodmSetup.js</title>
<path fill="none" stroke="#000000" stroke-width="2" stroke-opacity="0.200000" d="M70.19,-25C71.3,-25 72.43,-25 73.57,-25"/>
<polygon fill="#000000" fill-opacity="0.200000" stroke="#000000" stroke-width="2" stroke-opacity="0.200000" points="73.49,-27.1 79.49,-25 73.49,-22.9 73.49,-27.1"/>
</g>
<!-- src/mod4aodmManage.js -->
<g id="node3" class="node">
<title>src/mod4aodmManage.js</title>
<g id="a_node3"><a xlink:href="src/mod4aodmManage.js" xlink:title="mod4aodmManage.js">
<path fill="#ffffcc" stroke="black" d="M527.33,-36.88C527.33,-36.88 433.92,-36.88 433.92,-36.88 430.96,-36.88 428,-33.92 428,-30.96 428,-30.96 428,-25.04 428,-25.04 428,-22.08 430.96,-19.12 433.92,-19.12 433.92,-19.12 527.33,-19.12 527.33,-19.12 530.29,-19.12 533.25,-22.08 533.25,-25.04 533.25,-25.04 533.25,-30.96 533.25,-30.96 533.25,-33.92 530.29,-36.88 527.33,-36.88"/>
<text text-anchor="start" x="436" y="-24.32" font-family="Helvetica,sans-Serif" font-size="9.00">mod4aodmManage.js</text>
</a>
</g>
</g>
<!-- src/mod3aodmSetup.js&#45;&gt;src/mod4aodmManage.js -->
<g id="edge2" class="edge">
<title>src/mod3aodmSetup.js&#45;&gt;src/mod4aodmManage.js</title>
<path fill="none" stroke="#000000" stroke-width="2" stroke-opacity="0.200000" d="M178.87,-20.06C231.41,-17.84 319.42,-17.16 408.96,-18.98"/>
<polygon fill="#000000" fill-opacity="0.200000" stroke="#000000" stroke-width="2" stroke-opacity="0.200000" points="418.71,-21.3 424.75,-19.33 418.8,-17.1 418.71,-21.3"/>
<polyline fill="none" stroke="#000000" stroke-width="2" stroke-opacity="0.200000" points="417.76,-19.18 414.76,-19.11"/>
<ellipse fill="none" stroke="#000000" stroke-width="2" stroke-opacity="0.200000" cx="411.36" cy="-19.03" rx="2.4" ry="2.4"/>
</g>
<!-- src/mod5jsTreeSetup.js -->
<g id="node4" class="node">
<title>src/mod5jsTreeSetup.js</title>
<g id="a_node4"><a xlink:href="src/mod5jsTreeSetup.js" xlink:title="mod5jsTreeSetup.js">
<path fill="#ffffcc" stroke="black" d="M283.33,-61.88C283.33,-61.88 197.42,-61.88 197.42,-61.88 194.46,-61.88 191.5,-58.92 191.5,-55.96 191.5,-55.96 191.5,-50.04 191.5,-50.04 191.5,-47.08 194.46,-44.12 197.42,-44.12 197.42,-44.12 283.33,-44.12 283.33,-44.12 286.29,-44.12 289.25,-47.08 289.25,-50.04 289.25,-50.04 289.25,-55.96 289.25,-55.96 289.25,-58.92 286.29,-61.88 283.33,-61.88"/>
<text text-anchor="start" x="199.5" y="-49.33" font-family="Helvetica,sans-Serif" font-size="9.00">mod5jsTreeSetup.js</text>
</a>
</g>
</g>
<!-- src/mod3aodmSetup.js&#45;&gt;src/mod5jsTreeSetup.js -->
<g id="edge3" class="edge">
<title>src/mod3aodmSetup.js&#45;&gt;src/mod5jsTreeSetup.js</title>
<path fill="none" stroke="#000000" stroke-width="2" stroke-opacity="0.200000" d="M167.59,-34.32C173.4,-35.83 179.52,-37.43 185.65,-39.02"/>
<polygon fill="#000000" fill-opacity="0.200000" stroke="#000000" stroke-width="2" stroke-opacity="0.200000" points="194.43,-43.48 200.76,-42.95 195.49,-39.41 194.43,-43.48"/>
<polyline fill="none" stroke="#000000" stroke-width="2" stroke-opacity="0.200000" points="193.99,-41.19 191.09,-40.44"/>
<ellipse fill="none" stroke="#000000" stroke-width="2" stroke-opacity="0.200000" cx="187.8" cy="-39.58" rx="2.4" ry="2.4"/>
</g>
<!-- src/mod4aodmManage.js&#45;&gt;src/mod3aodmSetup.js -->
<g id="edge4" class="edge">
<title>src/mod4aodmManage.js&#45;&gt;src/mod3aodmSetup.js</title>
<path fill="none" stroke="#000000" stroke-width="2" stroke-opacity="0.200000" d="M427.78,-31.36C423.46,-31.23 419.15,-31.1 415,-31 340.52,-29.27 254.99,-29.59 197.57,-28.89"/>
<polygon fill="#000000" fill-opacity="0.200000" stroke="#000000" stroke-width="2" stroke-opacity="0.200000" points="187.93,-26.64 181.9,-28.65 187.86,-30.84 187.93,-26.64"/>
<polyline fill="none" stroke="#000000" stroke-width="2" stroke-opacity="0.200000" points="188.89,-28.76 191.89,-28.81"/>
<ellipse fill="none" stroke="#000000" stroke-width="2" stroke-opacity="0.200000" cx="195.29" cy="-28.86" rx="2.4" ry="2.4"/>
</g>
<!-- src/mod5jsTreeSetup.js&#45;&gt;src/mod4aodmManage.js -->
<g id="edge5" class="edge">
<title>src/mod5jsTreeSetup.js&#45;&gt;src/mod4aodmManage.js</title>
<path fill="none" stroke="#000000" stroke-width="2" stroke-opacity="0.200000" d="M274.33,-43.7C283.32,-41.49 293.1,-39.37 302.25,-38 337.31,-32.74 376.64,-30.19 409.35,-28.97"/>
<polygon fill="#000000" fill-opacity="0.200000" stroke="#000000" stroke-width="2" stroke-opacity="0.200000" points="418.79,-30.78 424.73,-28.49 418.66,-26.58 418.79,-30.78"/>
<polyline fill="none" stroke="#000000" stroke-width="2" stroke-opacity="0.200000" points="417.73,-28.71 414.73,-28.8"/>
<ellipse fill="none" stroke="#000000" stroke-width="2" stroke-opacity="0.200000" cx="411.33" cy="-28.91" rx="2.4" ry="2.4"/>
</g>
<!-- src/mod6jsTreeManage.js -->
<g id="node5" class="node">
<title>src/mod6jsTreeManage.js</title>
<g id="a_node5"><a xlink:href="src/mod6jsTreeManage.js" xlink:title="mod6jsTreeManage.js">
<path fill="#ffffcc" stroke="black" d="M406.46,-61.88C406.46,-61.88 310.79,-61.88 310.79,-61.88 307.83,-61.88 304.88,-58.92 304.88,-55.96 304.88,-55.96 304.88,-50.04 304.88,-50.04 304.88,-47.08 307.83,-44.12 310.79,-44.12 310.79,-44.12 406.46,-44.12 406.46,-44.12 409.42,-44.12 412.38,-47.08 412.38,-50.04 412.38,-50.04 412.38,-55.96 412.38,-55.96 412.38,-58.92 409.42,-61.88 406.46,-61.88"/>
<text text-anchor="start" x="312.88" y="-49.33" font-family="Helvetica,sans-Serif" font-size="9.00">mod6jsTreeManage.js</text>
</a>
</g>
</g>
<!-- src/mod5jsTreeSetup.js&#45;&gt;src/mod6jsTreeManage.js -->
<g id="edge6" class="edge">
<title>src/mod5jsTreeSetup.js&#45;&gt;src/mod6jsTreeManage.js</title>
<path fill="none" stroke="#000000" stroke-width="2" stroke-opacity="0.200000" d="M289.67,-48.56C289.82,-48.56 289.97,-48.55 290.12,-48.55"/>
<polygon fill="#000000" fill-opacity="0.200000" stroke="#000000" stroke-width="2" stroke-opacity="0.200000" points="295.38,-50.64 301.38,-48.52 295.37,-46.44 295.38,-50.64"/>
<polyline fill="none" stroke="#000000" stroke-width="2" stroke-opacity="0.200000" points="294.38,-48.54 291.38,-48.55"/>
<ellipse fill="none" stroke="#000000" stroke-width="2" stroke-opacity="0.200000" cx="287.98" cy="-48.56" rx="2.4" ry="2.4"/>
</g>
<!-- src/mod7FolderRenamer.js -->
<g id="node6" class="node">
<title>src/mod7FolderRenamer.js</title>
<g id="a_node6"><a xlink:href="src/mod7FolderRenamer.js" xlink:title="mod7FolderRenamer.js">
<path fill="#ffffcc" stroke="black" d="M409.08,-91.88C409.08,-91.88 308.17,-91.88 308.17,-91.88 305.21,-91.88 302.25,-88.92 302.25,-85.96 302.25,-85.96 302.25,-80.04 302.25,-80.04 302.25,-77.08 305.21,-74.12 308.17,-74.12 308.17,-74.12 409.08,-74.12 409.08,-74.12 412.04,-74.12 415,-77.08 415,-80.04 415,-80.04 415,-85.96 415,-85.96 415,-88.92 412.04,-91.88 409.08,-91.88"/>
<text text-anchor="start" x="310.25" y="-79.33" font-family="Helvetica,sans-Serif" font-size="9.00">mod7FolderRenamer.js</text>
</a>
</g>
</g>
<!-- src/mod5jsTreeSetup.js&#45;&gt;src/mod7FolderRenamer.js -->
<g id="edge7" class="edge">
<title>src/mod5jsTreeSetup.js&#45;&gt;src/mod7FolderRenamer.js</title>
<path fill="none" stroke="#000000" stroke-width="2" stroke-opacity="0.200000" d="M277.52,-62.33C288.78,-65.23 301.34,-68.47 313.1,-71.51"/>
<polygon fill="#000000" fill-opacity="0.200000" stroke="#000000" stroke-width="2" stroke-opacity="0.200000" points="312.24,-73.46 318.57,-72.92 313.29,-69.39 312.24,-73.46"/>
</g>
<!-- src/mod6jsTreeManage.js&#45;&gt;src/mod4aodmManage.js -->
<g id="edge8" class="edge">
<title>src/mod6jsTreeManage.js&#45;&gt;src/mod4aodmManage.js</title>
<path fill="none" stroke="#000000" stroke-width="2" stroke-opacity="0.200000" d="M404.31,-43.69C408.37,-42.84 412.53,-41.98 416.71,-41.11"/>
<polygon fill="#000000" fill-opacity="0.200000" stroke="#000000" stroke-width="2" stroke-opacity="0.200000" points="426.5,-41.21 431.94,-37.93 425.64,-37.1 426.5,-41.21"/>
<polyline fill="none" stroke="#000000" stroke-width="2" stroke-opacity="0.200000" points="425.09,-39.36 422.15,-39.97"/>
<ellipse fill="none" stroke="#000000" stroke-width="2" stroke-opacity="0.200000" cx="418.82" cy="-40.67" rx="2.4" ry="2.4"/>
</g>
<!-- src/mod6jsTreeManage.js&#45;&gt;src/mod5jsTreeSetup.js -->
<g id="edge9" class="edge">
<title>src/mod6jsTreeManage.js&#45;&gt;src/mod5jsTreeSetup.js</title>
<path fill="none" stroke="#000000" stroke-width="2" stroke-opacity="0.200000" d="M304.41,-57.49C304.25,-57.49 304.1,-57.49 303.94,-57.49"/>
<polygon fill="#000000" fill-opacity="0.200000" stroke="#000000" stroke-width="2" stroke-opacity="0.200000" points="298.7,-55.37 292.69,-57.45 298.69,-59.57 298.7,-55.37"/>
<polyline fill="none" stroke="#000000" stroke-width="2" stroke-opacity="0.200000" points="299.69,-57.47 302.69,-57.48"/>
<ellipse fill="none" stroke="#000000" stroke-width="2" stroke-opacity="0.200000" cx="306.09" cy="-57.5" rx="2.4" ry="2.4"/>
</g>
</g>
</svg>
